<?xml version="1.0" encoding="UTF-8" standalone="no"?>

<svg version="1.1" id="barber_x5F_big_x5F_barbershop" xmlns="http://www.w3.org/2000/svg" xmlns:xlink="http://www.w3.org/1999/xlink" x="0px" y="0px" viewBox="0 0 1607.29 357.88" style="enable-background:new 0 0 1607.29 357.88;" xml:space="preserve">
<path id="barber_x5F_big_x5F_barbershop1" style="fill:#FFFFFF;" d="M230.02,121.51l21.82,145.37H208.2L230.02,121.51z
M543.93,316.99h25.94c7.96,0,13.86-2.12,17.7-6.37c3.84-4.24,5.76-11.56,5.76-21.97V263.6c0-13.14-2.26-22.24-6.79-27.31
c-4.53-5.06-12.01-7.6-22.44-7.6h-20.17L543.93,316.99L543.93,316.99z M415.18,192.97c4.53-4.65,6.79-12.45,6.79-23.41v-28.33
c0-19.71-7.69-29.57-23.06-29.57h-21.82v88.29h17.7C403.86,199.95,410.65,197.63,415.18,192.97z M377.09,357.88h49.35
c-2.71-8.21-4.06-19.91-4.06-35.15v-45.17c0-13.14-2.34-22.52-7-28.13c-4.67-5.61-12.22-8.42-22.64-8.42h-15.65V357.88z
M43.43,316.99h25.94c7.96,0,13.86-2.12,17.7-6.37c3.84-4.24,5.76-11.56,5.76-21.97V263.6c0-13.14-2.26-22.24-6.79-27.31
c-4.53-5.06-12.01-7.6-22.44-7.6H43.43V316.99z M194.64,357.88h71.18l-7.8-51.98h-55.58L194.64,357.88z M88.31,157.24v-16.02
c0-19.71-7.69-29.57-23.06-29.57H43.43v75.97h17.7c9.06,0,15.85-2.32,20.38-6.98C86.04,176,88.31,168.19,88.31,157.24z
M1402.78,291.94V136.71c0-18.89-7.82-28.34-23.47-28.34s-23.47,9.44-23.47,28.34v155.23c0,18.89,7.82,28.34,23.47,28.34
C1394.96,320.27,1402.78,310.83,1402.78,291.94z M588.8,157.24v-16.02c0-19.71-7.69-29.57-23.06-29.57h-21.82v75.97h17.7
c9.06,0,15.85-2.32,20.38-6.98C586.54,176,588.8,168.19,588.8,157.24z M1186.54,357.88H1238V234.85h-51.46V357.88z M1558.29,202.82
c3.71-4.11,5.56-11.09,5.56-20.94v-43.12c0-9.86-1.85-16.84-5.56-20.94c-3.71-4.11-9.26-6.16-16.67-6.16h-21.41v97.33h21.41
C1549.03,208.98,1554.59,206.93,1558.29,202.82z M903.32,192.97c4.53-4.65,6.79-12.45,6.79-23.41v-28.33
c0-19.71-7.69-29.57-23.06-29.57h-21.82v88.29h17.7C892,199.95,898.79,197.63,903.32,192.97z M865.23,357.88h49.35
c-2.71-8.21-4.06-19.91-4.06-35.15v-45.17c0-13.14-2.34-22.52-7-28.13c-4.67-5.61-12.22-8.42-22.64-8.42h-15.65L865.23,357.88
L865.23,357.88z M1607.29,120.18V0H0v70.59h66.48c23.33,0,40.35,5.41,51.05,16.22c10.7,10.82,16.06,27.45,16.06,49.89v10.27
c0,29.57-9.75,48.87-29.23,57.9c22.5,8.76,33.76,29.3,33.76,61.6v23.41c0,22.18-5.83,39.08-17.5,50.72
c-10.58,10.55-25.63,16.3-45.11,17.28h77.55l46.09-287.29h66.29l46.09,287.29h20.29V70.59h68.34c23.33,0,40.35,5.41,51.05,16.22
c10.7,10.82,16.06,27.45,16.06,49.89v22.59c0,29.57-9.88,49.01-29.64,58.31c20.03,8.49,30.06,28.89,30.06,61.19v44.35
c0,15.49,1.63,27.07,4.87,34.74h26.09V70.59h68.34c23.33,0,40.35,5.41,51.05,16.22c10.7,10.82,16.06,27.45,16.06,49.89v10.27
c0,29.57-9.75,48.87-29.23,57.9c22.5,8.76,33.76,29.3,33.76,61.6v23.41c0,22.18-5.83,39.08-17.5,50.72
c-10.58,10.55-25.63,16.3-45.11,17.28h89.46V70.59h123.51v41.07h-78.23v80.08h62.17v41.07h-62.17v84.18h78.23v40.9h30.96V70.59
h68.34c23.33,0,40.35,5.41,51.05,16.22c10.7,10.82,16.06,27.45,16.06,49.89v22.59c0,29.57-9.88,49.01-29.64,58.31
c20.03,8.49,30.06,28.89,30.06,61.19v44.35c0,15.49,1.63,27.07,4.87,34.74h61.21c-9.97-3.05-18.25-8.12-24.82-15.23
c-11.53-12.45-17.29-30.32-17.29-53.59V271.4h42.82v20.53c0,18.62,7.82,27.92,23.47,27.92s23.47-9.3,23.47-27.92
c0-10.68-3.02-20.74-9.06-30.18c-6.04-9.45-13.38-18-22.03-25.67c-8.65-7.66-17.36-15.67-26.14-24.02
c-8.79-8.35-16.2-18.75-22.23-31.21c-6.04-12.45-9.06-26.21-9.06-41.27c0-23.27,5.62-41.13,16.88-53.59
c11.25-12.45,27.86-18.68,49.82-18.68s38.56,6.23,49.82,18.68c11.25,12.46,16.88,30.32,16.88,53.59v9.03h-42.82V136.7
c0-18.89-7.55-28.34-22.64-28.34c-15.1,0-22.64,9.44-22.64,28.34c0,7.94,1.65,15.47,4.94,22.59c3.29,7.12,7.55,13.55,12.76,19.3
s10.97,11.43,17.29,17.04c6.31,5.61,12.56,11.5,18.73,17.66c6.18,6.16,11.87,12.73,17.09,19.71c5.21,6.98,9.47,15.26,12.76,24.84
c3.29,9.59,4.94,19.99,4.94,31.21c0,23.27-5.76,41.14-17.29,53.59c-6.58,7.11-14.86,12.18-24.83,15.23h68.55V70.59h45.29v123.2
h51.46V70.59h46.11v287.29h69.58c-10.19-3.08-18.67-8.22-25.43-15.44c-11.8-12.59-17.7-30.39-17.7-53.39V139.58
c0-23,5.9-40.79,17.7-53.38c11.8-12.59,28.82-18.89,51.05-18.89c22.23,0,39.25,6.3,51.05,18.89c11.8,12.6,17.7,30.39,17.7,53.38
v149.48c0,23-5.91,40.8-17.7,53.39c-6.76,7.22-15.25,12.35-25.43,15.44h69.98V70.59h66.7C1579.22,70.59,1601.1,87.13,1607.29,120.18
z M1607.29,200.46c-6.19,33.05-28.08,49.58-65.68,49.58h-21.41v107.83h87.09L1607.29,200.46L1607.29,200.46z"></path>
</svg>
